<?xml version="1.0" standalone="no"?><!DOCTYPE svg PUBLIC "-//W3C//DTD SVG 1.1//EN" "http://www.w3.org/Graphics/SVG/1.1/DTD/svg11.dtd"><svg t="1570260580364" class="icon" viewBox="0 0 1024 1024" version="1.1" xmlns="http://www.w3.org/2000/svg" p-id="1421" width="32" height="32" xmlns:xlink="http://www.w3.org/1999/xlink"><defs><style type="text/css"></style></defs><path d="M871.857008 867.106679L569.335089 564.596802c40.182126-43.276764 64.824835-101.171778 64.824836-164.738288 0-133.62333-108.70969-242.33302-242.33302-242.33302S149.493885 266.235183 149.493885 399.858514s108.70969 242.33302 242.33302 242.333019c63.572531 0 121.467545-24.642709 164.738288-64.824835l302.515898 302.509878c1.764064 1.764064 4.076011 2.643086 6.387959 2.643085s4.623895-0.879022 6.387958-2.643085a9.031044 9.031044 0 0 0 0-12.769897z" p-id="1422"></path><path d="M508.706679 443.099153c-43.559737 0-80.972342-14.449671-102.48429-24.979868 12.896331 38.550517 51.964628 119.817874 153.437442 130.281844 33.240263-37.520978 54.120038-86.210348 56.21524-139.668109-36.292756 25.720414-73.536783 34.366134-107.168392 34.366133zM410.087676 385.463029c38.562559-12.902352 119.817874-51.970649 130.275824-153.437441-37.551082-33.264346-86.282596-54.150141-139.782503-56.21524 59.063029 83.29031 28.176858 171.511571 9.506679 209.652681zM377.431421 381.603763c-12.896331-38.562559-51.964628-119.817874-153.437442-130.275823-33.270367 37.551082-54.150141 86.282596-56.21524 139.782502 83.29031-59.06905 171.511571-28.182879 209.652682-9.506679zM373.566134 414.253998c-38.556538 12.902352-119.805833 51.970649-130.269803 153.443462 37.551082 33.264346 86.282596 54.14412 139.776482 56.209219-59.057008-83.29031-28.176858-171.511571-9.506679-209.652681z" fill="#7BDDFF" p-id="1423"></path><path d="M394.560301 376.769144c18.15842-36.401129 48.015052-121.545814-16.460583-200.723989-53.259078 3.239135-101.53904 25.124365-138.397742 59.219567C340.283725 252.447789 380.79699 336.617121 394.560301 376.769144zM389.093509 422.947883c-18.152399 36.401129-48.00301 121.545814 16.466604 200.723989 53.253057-3.239135 101.526999-25.124365 138.385701-59.213547-100.563688-17.189087-141.088993-101.35842-154.852305-141.510442zM615.640263 386.131326c-3.233114-53.253057-25.118344-101.53302-59.213546-138.391721-17.183067 100.575729-101.35842 141.095014-141.516463 154.858325 36.401129 18.152399 121.545814 48.015052 200.730009-16.466604zM168.013547 413.591722c3.239135 53.259078 25.124365 101.53302 59.219567 138.391721 17.183067-100.575729 101.352399-141.101035 141.510442-154.864346-36.395108-18.152399-121.527752-48.00301-200.730009 16.472625z" fill="#EF6354" p-id="1424"></path></svg>